<?xml version="1.0" encoding="UTF-8" standalone="no"?>
<svg
   xmlns:dc="http://purl.org/dc/elements/1.1/"
   xmlns:cc="http://creativecommons.org/ns#"
   xmlns:rdf="http://www.w3.org/1999/02/22-rdf-syntax-ns#"
   xmlns:svg="http://www.w3.org/2000/svg"
   xmlns="http://www.w3.org/2000/svg"
   viewBox="0 200 500 500"
   height="500"
   width="500"
   xml:space="preserve"
   version="1.1"
   id="svg2"><metadata
     id="metadata8"><rdf:RDF><cc:Work
         rdf:about=""><dc:format>image/svg+xml</dc:format><dc:type
           rdf:resource="http://purl.org/dc/dcmitype/StillImage" /></cc:Work></rdf:RDF></metadata><defs
     id="defs6"><clipPath
       id="clipPath18"
       clipPathUnits="userSpaceOnUse"><path
         id="path20"
         d="M 0,6196.62 0,0 l 4000,0 0,6196.62 -4000,0 z" /></clipPath></defs><g
     transform="matrix(1.25,0,0,-1.25,0,774.575)"
     id="g10"><g
       transform="scale(0.1,0.1)"
       id="g12"><g
         id="g14"><g
           clip-path="url(#clipPath18)"
           id="g16"><path
             id="path22"
             style="fill:#569cda;fill-opacity:1;fill-rule:nonzero;stroke:none"
             d="m 0,627.879 4000,0 0,4000 -4000,0 0,-4000 z" /><path
             id="path24"
             style="fill:#ffffff;fill-opacity:1;fill-rule:nonzero;stroke:none"
             d="m 1536.23,1611.99 c 943.44,0 1459.36,781.61 1459.36,1459.36 0,22.21 -0.45,44.32 -1.47,66.31 100.14,72.39 187.2,162.72 255.88,265.57 -91.91,-40.82 -190.81,-68.34 -294.56,-80.74 105.9,63.48 187.2,163.96 225.54,283.72 -99.12,-58.75 -208.85,-101.48 -325.68,-124.49 -93.59,99.69 -226.89,162.05 -374.39,162.05 -283.28,0 -512.99,-229.71 -512.99,-512.88 0,-40.26 4.51,-79.39 13.3,-116.95 -426.27,21.43 -804.27,225.54 -1057.216,535.89 -44.094,-75.78 -69.469,-163.86 -69.469,-257.79 0,-177.96 90.559,-335.05 228.245,-426.95 -84.124,2.59 -163.175,25.71 -232.303,64.17 -0.114,-2.14 -0.114,-4.29 -0.114,-6.54 0,-248.44 176.827,-455.82 411.497,-502.85 -43.07,-11.72 -88.41,-18.04 -135.21,-18.04 -33.04,0 -65.18,3.27 -96.42,9.25 65.3,-203.78 254.64,-352.07 479.16,-356.25 -175.58,-137.57 -396.72,-219.56 -637.035,-219.56 -41.386,0 -82.21,2.37 -122.355,7.11 227.004,-145.47 496.53,-230.39 786.23,-230.39" /><path
             id="path232"
             style="fill:#569cda;fill-opacity:1;fill-rule:nonzero;stroke:none"
             d="m 1965.78,5078.21 11.0898,0 0,11.0977 -11.0898,0 0,-11.0977 z" /><path
             id="path234"
             style="fill:#f2f2f2;fill-opacity:1;fill-rule:nonzero;stroke:none"
             d="m 1012.64,164.742 c -9.2,0 -16.742,-1.883 -22.636,-5.633 -5.895,-3.75 -8.844,-9.418 -8.844,-17.007 0,-7.59 2.949,-13.391 8.844,-17.411 5.894,-4.019 18.436,-8.351 37.636,-12.992 19.2,-4.648 33.66,-11.16 43.4,-19.5584 9.73,-8.3906 14.59,-20.75 14.59,-37.1015 0,-16.3399 -6.16,-29.5977 -18.48,-39.7774 C 1054.83,5.08984 1038.66,0 1018.67,0 989.375,0 963.395,10.082 940.715,30.2617 l 19.82,23.8399 c 18.93,-16.4297 38.574,-24.6407 58.935,-24.6407 10.18,0 18.25,2.1875 24.24,6.5586 5.98,4.3789 8.98,10.1797 8.98,17.4219 0,7.2188 -2.82,12.8477 -8.44,16.8711 -5.63,4.0195 -15.32,7.6797 -29.06,10.9883 -13.76,3.3008 -24.21,6.3281 -31.346,9.0976 -7.145,2.7735 -13.489,6.3907 -19.02,10.8516 -11.074,8.391 -16.609,21.25 -16.609,38.57 0,17.328 6.297,30.68 18.887,40.051 12.589,9.379 28.168,14.059 46.738,14.059 11.97,0 23.85,-1.969 35.63,-5.891 11.78,-3.93 21.97,-9.469 30.54,-16.609 l -16.88,-23.828 c -5.54,4.988 -13.04,9.097 -22.5,12.308 -9.47,3.211 -18.79,4.832 -27.99,4.832" /><path
             id="path236"
             style="fill:#f2f2f2;fill-opacity:1;fill-rule:nonzero;stroke:none"
             d="m 1256.26,189.379 0,-29.731 -99.91,0 0,-49.558 89.73,0 0,-28.1291 -89.73,0 0,-50.0898 103.13,0 0,-29.73047 -134.74,0 0,187.23837 131.52,0" /><path
             id="path238"
             style="fill:#f2f2f2;fill-opacity:1;fill-rule:nonzero;stroke:none"
             d="m 1431.45,189.379 0,-29.731 -99.92,0 0,-49.558 89.75,0 0,-28.1291 -89.75,0 0,-50.0898 103.14,0 0,-29.73047 -134.74,0 0,187.23837 131.52,0" /><path
             id="path240"
             style="fill:#f2f2f2;fill-opacity:1;fill-rule:nonzero;stroke:none"
             d="m 1475.12,189.379 31.6,0 0,-91.3399 85.72,91.3399 40.19,0 -75.28,-81.969 76.34,-105.26937 -37.5,0 -62.15,81.96877 -27.32,-29.4688 0,-52.49997 -31.6,0 0,187.23837" /><path
             id="path242"
             style="fill:#f2f2f2;fill-opacity:1;fill-rule:nonzero;stroke:none"
             d="m 1663.69,2.14063 0,187.23837 31.6,0 0,-157.2384 85.46,0 0,-29.99997 -117.06,0" /><path
             id="path244"
             style="fill:#f2f2f2;fill-opacity:1;fill-rule:nonzero;stroke:none"
             d="m 1943.49,145.18 c -12.78,13.218 -28.45,19.82 -47.02,19.82 -18.57,0 -34.24,-6.602 -47.01,-19.82 -12.77,-13.219 -19.16,-29.239 -19.16,-48.0784 0,-18.8516 6.39,-34.8711 19.16,-48.0899 12.77,-13.2109 28.44,-19.8203 47.01,-19.8203 18.57,0 34.24,6.6094 47.02,19.8203 12.76,13.2188 19.15,29.2383 19.15,48.0899 0,18.8394 -6.39,34.8594 -19.15,48.0784 z M 1966.65,27.9922 C 1947.72,9.5 1924.33,0.261719 1896.47,0.261719 c -27.86,0 -51.26,9.238281 -70.18,27.730481 -18.94,18.4766 -28.4,41.5195 -28.4,69.1094 0,27.5894 9.46,50.6174 28.4,69.1094 18.92,18.488 42.32,27.719 70.18,27.719 27.86,0 51.25,-9.231 70.18,-27.719 18.93,-18.492 28.4,-41.52 28.4,-69.1094 0,-27.5899 -9.47,-50.6328 -28.4,-69.1094" /><path
             id="path246"
             style="fill:#f2f2f2;fill-opacity:1;fill-rule:nonzero;stroke:none"
             d="m 2164.61,93.2109 31.61,0 0,-64.0195 C 2178.54,9.73047 2153.26,0 2120.41,0 c -27.69,0 -50.86,9.10156 -69.51,27.3086 -18.66,18.2305 -28,41.2617 -28,69.1133 0,27.8671 9.51,51.0781 28.54,69.6481 19.01,18.578 42,27.86 68.97,27.86 26.96,0 49.38,-7.86 67.24,-23.571 l -16.88,-24.109 c -7.32,6.25 -14.7,10.582 -22.1,13 -7.41,2.41 -16.03,3.609 -25.85,3.609 -18.93,0 -34.82,-6.117 -47.68,-18.347 -12.85,-12.242 -19.29,-28.313 -19.29,-48.2112 0,-19.9219 6.25,-35.9024 18.75,-47.9492 12.5,-12.0625 27.64,-18.0899 45.41,-18.0899 17.76,0 32.64,3.8399 44.6,11.5274 l 0,51.4218" /><path
             id="path248"
             style="fill:#f2f2f2;fill-opacity:1;fill-rule:nonzero;stroke:none"
             d="m 2371.28,145.18 c -12.77,13.218 -28.45,19.82 -47.01,19.82 -18.58,0 -34.25,-6.602 -47.01,-19.82 -12.78,-13.219 -19.16,-29.239 -19.16,-48.0784 0,-18.8516 6.38,-34.8711 19.16,-48.0899 12.76,-13.2109 28.43,-19.8203 47.01,-19.8203 18.56,0 34.24,6.6094 47.01,19.8203 12.76,13.2188 19.15,29.2383 19.15,48.0899 0,18.8394 -6.39,34.8594 -19.15,48.0784 z M 2394.44,27.9922 C 2375.52,9.5 2352.12,0.261719 2324.27,0.261719 c -27.86,0 -51.26,9.238281 -70.19,27.730481 -18.93,18.4766 -28.4,41.5195 -28.4,69.1094 0,27.5894 9.47,50.6174 28.4,69.1094 18.93,18.488 42.33,27.719 70.19,27.719 27.85,0 51.25,-9.231 70.17,-27.719 18.93,-18.492 28.4,-41.52 28.4,-69.1094 0,-27.5899 -9.47,-50.6328 -28.4,-69.1094" /><path
             id="path250"
             style="fill:#f2f2f2;fill-opacity:1;fill-rule:nonzero;stroke:none"
             d="m 2455.12,5.89063 c -3.84,3.91796 -5.76,8.66017 -5.76,14.19917 0,5.5196 1.92,10.211 5.76,14.0586 3.83,3.8438 8.52,5.7618 14.06,5.7618 5.54,0 10.27,-1.918 14.2,-5.7618 3.92,-3.8476 5.89,-8.539 5.89,-14.0586 0,-5.539 -1.97,-10.28121 -5.89,-14.19917 C 2479.45,1.96094 2474.72,0 2469.18,0 c -5.54,0 -10.23,1.96094 -14.06,5.89063" /><path
             id="path252"
             style="fill:#f2f2f2;fill-opacity:1;fill-rule:nonzero;stroke:none"
             d="m 2673.03,189.379 31.61,0 0,-187.23837 -34.29,0 -106.08,136.60937 0,-136.60937 -31.6,0 0,187.23837 31.6,0 108.76,-139.8282 0,139.8282" /><path
             id="path254"
             style="fill:#f2f2f2;fill-opacity:1;fill-rule:nonzero;stroke:none"
             d="m 2888.13,189.379 0,-29.731 -99.93,0 0,-49.558 89.75,0 0,-28.1291 -89.75,0 0,-50.0898 103.14,0 0,-29.73047 -134.74,0 0,187.23837 131.53,0" /><path
             id="path256"
             style="fill:#f2f2f2;fill-opacity:1;fill-rule:nonzero;stroke:none"
             d="m 3002.5,160.449 0,-158.30837 -31.6,0 0,158.30837 -56.8,0 0,28.93 145.19,0 0,-28.93 -56.79,0" /></g></g></g></g></svg>