<?xml version="1.0" encoding="UTF-8" standalone="no"?>
<svg
   xmlns:dc="http://purl.org/dc/elements/1.1/"
   xmlns:cc="http://creativecommons.org/ns#"
   xmlns:rdf="http://www.w3.org/1999/02/22-rdf-syntax-ns#"
   xmlns:svg="http://www.w3.org/2000/svg"
   xmlns="http://www.w3.org/2000/svg"
   viewBox="165 0 306 306"
   height="306"
   width="306"
   xml:space="preserve"
   version="1.1"
   id="svg2"><metadata
     id="metadata8"><rdf:RDF><cc:Work
         rdf:about=""><dc:format>image/svg+xml</dc:format><dc:type
           rdf:resource="http://purl.org/dc/dcmitype/StillImage" /></cc:Work></rdf:RDF></metadata><defs
     id="defs6"><clipPath
       id="clipPath18"
       clipPathUnits="userSpaceOnUse"><path
         id="path20"
         d="m 0,0 5165,0 0,4736.65 -5165,0 L 0,0 Z" /></clipPath></defs><g
     transform="matrix(1.25,0,0,-1.25,0,592.0875)"
     id="g10"><g
       transform="scale(0.1,0.1)"
       id="g12"><g
         id="g14"><g
           clip-path="url(#clipPath18)"
           id="g16"><path
             id="path22"
             style="fill:#52c6e3;fill-opacity:1;fill-rule:evenodd;stroke:none"
             d="m 1332.23,4296.32 0,-1572.65 c 0,-242.7 197.6,-440.32 440.35,-440.32 l 1572.6,0 c 242.73,0 440.33,197.62 440.33,440.32 l 0,1572.65 c 0,242.71 -197.6,440.33 -440.33,440.33 l -1572.6,0 c -242.75,0 -440.35,-197.62 -440.35,-440.33" /><path
             id="path24"
             style="fill:#6acfec;fill-opacity:1;fill-rule:nonzero;stroke:none"
             d="m 1332.32,3904.24 c 338.57,-108.15 767.28,-172.77 1233.68,-172.77 459.73,0 883.05,62.82 1219.43,168.26 l 0,406.33 c -3.55,216.26 -163.82,395.23 -371.97,427.75 -15.82,1.82 -31.87,2.84 -48.16,2.84 l -1617.51,0 c -10.88,0 -21.62,-0.55 -32.29,-1.36 -215.83,-28.15 -383.18,-213.16 -383.18,-436.5 l 0,-394.55" /><path
             id="path26"
             style="fill:#a9e3f0;fill-opacity:1;fill-rule:nonzero;stroke:none"
             d="m 3309.07,2339.66 -1500.39,0 c -231.6,0 -420.13,188.52 -420.13,420.14 l 0,1127.13 c 26.97,-8 54.45,-15.73 82.45,-23.19 l 0,-1073.99 c 0,-203.26 164.38,-367.65 367.61,-367.65 l 1440.53,0 c 203.23,0 367.6,164.39 367.6,367.65 l 0,1070.23 c 28,7.31 55.47,14.9 82.46,22.76 l 0,-1122.94 c 0,-231.62 -188.53,-420.14 -420.13,-420.14" /><path
             id="path28"
             style="fill:#b5e7f5;fill-opacity:1;fill-rule:nonzero;stroke:none"
             d="m 3646.74,3859.98 0,370.82 c 0,202.71 -164.37,367.6 -367.6,367.6 l -1440.53,0 C 1635.38,4598.4 1471,4433.51 1471,4230.8 l 0,-367.06 c -28,7.46 -55.48,15.19 -82.45,23.19 l 0,373.28 c 0,231.58 188.53,420.12 420.13,420.12 l 1500.39,0 c 231.6,0 420.13,-188.54 420.13,-420.12 l 0,-377.47 c -26.99,-7.86 -54.46,-15.45 -82.46,-22.76" /><path
             id="path30"
             style="fill:#ffffff;fill-opacity:1;fill-rule:evenodd;stroke:none"
             d="m 2525.23,3694.62 c 62.53,195.22 138.97,321.72 226.92,413.42 65.63,68.44 99.5,90.17 60.98,14.82 17.01,13.64 41.5,31.77 60.49,41.47 106.42,50.21 98.88,8.12 25.55,-37 200.11,71.59 193.18,-19.58 -18.48,-64.99 173.06,-3.26 357.03,-113.38 409.98,-347.61 7.32,-32.42 -1.45,-29.34 31.76,-35.21 71.68,-12.69 139.1,-11.91 204.84,8.97 -7.11,-48.46 -71.13,-79.95 -170.99,-100.75 -37,-7.7 -44.58,-5.68 -0.23,-15.65 54.6,-12.28 115.71,-15.46 180.28,-12.43 -50.31,-57.92 -130.5,-87.52 -229.69,-88.74 -62.04,-226.55 -203.8,-388.77 -383.22,-490.61 -421.27,-239.1 -1034.49,-204.41 -1342,230.14 201.77,-158.34 500.7,-193.22 722.73,27.48 -145.45,-0.03 -183.11,108.89 -67.8,167.71 -109.2,1.13 -178.62,35.67 -219.35,98.21 -15.46,23.75 -15.62,25.57 9.6,43.8 27.74,20.05 65.54,28.97 104.59,31.97 -113.01,32.35 -182.12,91.4 -206.05,170.58 -7.91,26.19 -9.15,24.87 17.51,31.63 26.06,6.61 59.59,10.14 89.65,11.62 -88.76,53.84 -141.8,119.82 -155.3,192.77 -12.74,68.86 0.38,51.19 51.94,31.46 230.47,-88.17 460.25,-182.87 596.29,-323.06" />

</g></g></g></g></svg>